<?xml version="1.0" standalone="no"?>
<svg viewBox="0 0 200 200" xmlns="http://www.w3.org/2000/svg">
  <path fill="#FEEB55" d="M39.5,-67C49.8,-62.5,55.9,-49.1,62.8,-36.5C69.6,-23.9,77.2,-11.9,77.6,0.2C78,12.4,71.1,24.7,61.3,32.2C51.5,39.8,38.8,42.5,28.1,48.6C17.4,54.8,8.7,64.3,-3.5,70.4C-15.7,76.4,-31.4,78.9,-41.1,72.2C-50.8,65.5,-54.5,49.6,-61.3,36C-68,22.4,-77.8,11.2,-79,-0.7C-80.2,-12.6,-72.8,-25.2,-66.4,-39.3C-59.9,-53.4,-54.4,-69.1,-43.5,-73.3C-32.6,-77.5,-16.3,-70.3,-0.9,-68.8C14.6,-67.3,29.2,-71.5,39.5,-67Z" transform="translate(100 100)" />
</svg>
