<svg xmlns="http://www.w3.org/2000/svg" transform="rotate(180)" version="1.1" xmlns:xlink="http://www.w3.org/1999/xlink" xmlns:svgjs="http://svgjs.com/svgjs" width="1440" height="560" preserveAspectRatio="none" viewBox="0 0 1440 560"><g mask="url(&quot;#SvgjsMask1225&quot;)" fill="none"><path d="M1512 560L0 560 L0 340.35Q17.8 286.15, 72 303.96Q138.15 250.11, 192 316.26Q278.3 282.56, 312 368.85Q336.77 273.62, 432 298.39Q503.28 249.67, 552 320.96Q609.5 306.45, 624 363.95Q678.5 298.45, 744 352.96Q792.19 281.15, 864 329.35Q929.05 274.4, 984 339.45Q1026.92 262.37, 1104 305.29Q1129.16 258.45, 1176 283.61Q1234.78 270.39, 1248 329.18Q1291.26 300.44, 1320 343.71Q1390.39 294.1, 1440 364.49Q1451.94 304.44, 1512 316.38z" fill="#949494"></path><path d="M1488 560L0 560 L0 407.73Q11.74 347.47, 72 359.2Q113.19 328.39, 144 369.59Q196.48 350.07, 216 402.55Q270.18 336.73, 336 390.91Q399.22 382.13, 408 445.35Q409.82 375.18, 480 377Q531.6 308.6, 600 360.2Q679.64 319.84, 720 399.48Q773.18 332.66, 840 385.84Q867.39 341.23, 912 368.62Q965.02 349.64, 984 402.66Q1058.04 356.7, 1104 430.74Q1133.66 340.4, 1224 370.07Q1305.78 331.85, 1344 413.62Q1366.1 363.72, 1416 385.82Q1435.9 333.72, 1488 353.62z" fill="#bdbdbd"></path><path d="M1536 560L0 560 L0 493.45Q15.28 436.73, 72 452.01Q96.55 404.56, 144 429.11Q186.3 399.41, 216 441.71Q286.61 392.31, 336 462.92Q407.94 414.86, 456 486.79Q471.31 430.11, 528 445.42Q569.88 415.3, 600 457.17Q617.42 402.59, 672 420Q738.27 366.27, 792 432.54Q862.28 430.82, 864 501.1Q897.62 414.72, 984 448.33Q1061.97 406.3, 1104 484.28Q1176.78 437.06, 1224 509.84Q1239.39 453.24, 1296 468.63Q1333.28 385.91, 1416 423.19Q1490.14 377.33, 1536 451.47z" fill="#dedede"></path><path d="M1536 560L0 560 L0 555.54Q15.78 499.32, 72 515.09Q137.24 460.33, 192 525.56Q251.06 512.62, 264 571.68Q284.45 472.13, 384 492.58Q460.64 449.22, 504 525.85Q553.44 503.29, 576 552.72Q587.28 492, 648 503.28Q690.02 473.3, 720 515.32Q800.61 475.93, 840 556.55Q870.9 467.45, 960 498.36Q1005.24 471.6, 1032 516.83Q1085.3 498.13, 1104 551.44Q1170.01 497.45, 1224 563.46Q1269.43 536.89, 1296 582.33Q1339.74 506.07, 1416 549.81Q1483.61 497.41, 1536 565.02z" fill="#ffff"></path></g><defs><mask id="SvgjsMask1225"><rect width="1440" height="560" fill="#ffffff"></rect></mask></defs></svg>
