<?xml version="1.0" encoding="utf-8"?>
<!-- Generator: Adobe Illustrator 23.0.5, SVG Export Plug-In . SVG Version: 6.00 Build 0)  -->
<svg version="1.1" id="Capa_1" xmlns="http://www.w3.org/2000/svg" xmlns:xlink="http://www.w3.org/1999/xlink" x="0px" y="0px"
	 viewBox="0 0 64 64" enable-background="new 0 0 64 64" xml:space="preserve">
<path display="none" fill="#FDFDFD" d="M31,66.99c-11.56,0-23.12,0-34.69,0.01C-3.94,67-4,66.94-4,66.69
	c0.01-23.12,0.01-46.25,0-69.37C-4-2.94-3.94-3-3.69-3c23.12,0.01,46.25,0.01,69.37,0C65.94-3,66-2.94,66-2.69
	c-0.01,23.12-0.01,46.25,0,69.37c0,0.26-0.06,0.31-0.31,0.31C54.12,66.99,42.56,66.99,31,66.99z"/>
<path d="M56.01,24.12c-0.55-0.56-1.04-1.17-1.54-1.78c-0.16-0.2-0.24-0.18-0.42-0.03c-1,0.88-2,1.75-3.03,2.59
	c-0.97,0.8-1.91,1.65-2.89,2.44c-0.47,0.38-0.91,0.79-1.37,1.17c-0.16,0.13-0.21,0.26-0.2,0.47c0.18,5.26-1.76,9.58-5.81,12.94
	c-1.53,1.27-3.28,2.16-5.18,2.74c-0.2,0.06-0.28,0.16-0.28,0.36c-0.07,2.06-0.16,4.11-0.21,6.17c-0.01,0.33,0.13,0.67,0.17,1
	c0.16,1.51-0.61,2.11-1.81,2.34c-1.01,0.2-2.04,0.09-3.04-0.21c-0.17-0.05-0.35-0.11-0.5-0.2c-0.61-0.37-1.07-0.85-1.04-1.63
	c0.03-0.91,0.47-1.57,1.34-1.87c0.98-0.34,2.01-0.35,3.04-0.23c0.33,0.04,0.42-0.01,0.43-0.36c0.03-1.52,0.09-3.05,0.15-4.57
	c0.01-0.28-0.03-0.36-0.34-0.31c-2.48,0.41-4.92,0.18-7.31-0.58c-0.27-0.09-0.53-0.2-0.79-0.32c-0.2-0.09-0.27-0.07-0.28,0.17
	c-0.02,0.92-0.07,1.84-0.1,2.76c-0.05,1.28-0.08,2.57-0.13,3.85c-0.01,0.28,0.08,0.54,0.13,0.8c0.08,0.42,0.11,0.84,0.01,1.25
	c-0.2,0.84-0.75,1.25-1.8,1.45c-1,0.19-2.02,0.08-3.01-0.2c-0.32-0.09-0.62-0.23-0.87-0.45c-0.61-0.51-0.83-1.14-0.62-1.92
	c0.2-0.76,0.72-1.21,1.44-1.41c0.92-0.26,1.86-0.28,2.81-0.19c0.46,0.05,0.46,0.06,0.48-0.42c0.06-1.88,0.13-3.75,0.19-5.63
	c0-0.14-0.01-0.27,0.05-0.4c0.09-0.16,0.29-0.32,0-0.47c-1.13-0.56-2.13-1.3-3.06-2.15c-0.2-0.18-0.3-0.17-0.49,0.01
	c-2.38,2.19-4.67,4.46-7.03,6.66c-0.95,0.89-1.9,1.77-2.94,2.54c-0.3,0.22-0.61,0.43-0.96,0.58c-0.78,0.33-1.39,0.07-1.62-0.74
	c-0.4-1.4-0.78-2.8-1.16-4.2c-1.36-5.1-2.72-10.2-4.09-15.3c-0.09-0.34-0.15-0.67,0.04-0.99c0.35-0.46,0.65-0.53,1.09-0.26
	c0.09,0.12,0.18,0.23,0.26,0.36c1.84,2.99,3.68,5.98,5.7,8.86c0.3,0.43,0.64,0.83,0.94,1.26c0.15,0.21,0.24,0.18,0.41,0.01
	c1.76-1.8,3.52-3.59,5.33-5.33c0.18-0.17,0.12-0.32,0.07-0.49c-0.64-2.07-0.83-4.19-0.57-6.34c0.15-1.25,0.45-2.46,0.89-3.63
	c0.04-0.11,0.11-0.21,0.06-0.36c-0.46-1.31-0.63-2.69-0.94-4.04c-0.35-1.54-0.67-3.09-1-4.63c-0.04-0.17-0.11-0.26-0.29-0.32
	c-0.68-0.2-1.33-0.47-2.03-0.59c-0.35-0.05-0.44-0.32-0.47-0.61c-0.03-0.3,0.06-0.58,0.31-0.74c0.19-0.12,0.44-0.06,0.66-0.03
	c0.37,0.02,0.71,0.2,1.13,0.27c-0.26-0.41-0.5-0.78-0.73-1.15c0.24-0.41,0.48-0.82,1.05-0.83c0.08,0,0.13,0.01,0.17,0.08
	c0.24,0.34,0.49,0.68,0.74,1.05c0.24-0.43,0.47-0.84,0.69-1.25c0.52-0.06,0.91,0.18,1.24,0.54c0.02,0.03,0.01,0.06-0.01,0.09
	c-0.07,0.37-0.31,0.67-0.46,1.01c-0.05,0.12-0.11,0.24-0.19,0.41c0.52-0.12,0.99-0.23,1.46-0.34c0.03-0.02,0.06-0.03,0.1-0.03
	c0.16,0.04,0.35-0.17,0.44-0.03c0.14,0.24,0.38,0.46,0.31,0.79c-0.05,0.22,0.02,0.49-0.28,0.59c-0.72,0.24-1.46,0.41-2.21,0.56
	c-0.16,0.03-0.23,0.06-0.19,0.26c0.51,2.31,1,4.62,1.5,6.93c0.14,0.01,0.15-0.11,0.19-0.17c2.14-3.46,5.15-5.78,9.05-6.92
	c4.84-1.41,9.56-0.24,12.9,2.01c0.21,0.14,0.37,0.14,0.59,0.04c6.08-2.87,12.51-4.16,19.21-4.21c0.18,0,0.36,0,0.55,0.01
	c0.46,0.01,0.92,0,1.36,0.19c0.46,0.36,0.5,0.59,0.2,1.14c-0.17,0.21-0.42,0.3-0.67,0.38c-3.09,0.9-5.91,2.41-8.73,3.92
	c-0.04,0.02-0.07,0.05-0.11,0.08c-0.38,0.33-0.84,0.53-1.27,0.78c-1.85,1.04-3.67,2.14-5.49,3.26c-0.25,0.15-0.32,0.29-0.18,0.57
	c0.56,1.14,0.97,2.33,1.22,3.57c0.04,0.22,0.12,0.21,0.26,0.08c0.92-0.84,1.91-1.61,2.86-2.43c1.09-0.94,2.19-1.88,3.3-2.8
	c0.07-0.06,0.14-0.12,0.21-0.17c0.16-0.13,0.17-0.25,0.03-0.43c-0.37-0.47-0.75-0.94-0.92-1.54c0-0.05,0.01-0.1,0.03-0.15
	c0.39-0.61,0.68-0.73,1.27-0.53c0.12,0.19,0.23,0.38,0.35,0.57c0.12,0.18,0.24,0.35,0.4,0.58c0.14-0.63,0.21-1.2,0.28-1.77
	c0.11-0.33,0.74-0.47,1.1-0.27c0.38,0.2,0.33,0.55,0.28,0.86c-0.03,0.2-0.03,0.4-0.08,0.6c-0.04,0.3-0.07,0.61-0.13,0.91
	c-0.04,0.2,0,0.27,0.22,0.31c0.51,0.08,1.04,0.11,1.54,0.26c0.05,0.08,0.21-0.01,0.23,0.13c0.2,0.51,0.13,0.94-0.34,1.28
	C57.11,22.02,57,22.05,56.9,22c-0.28,0.01-0.55-0.12-0.86-0.06c0.38,0.46,0.76,0.91,1.14,1.36c0.05,0.37-0.21,0.81-0.56,0.92
	c-0.12,0.04-0.24,0.06-0.36,0.07C56.13,24.3,56.09,24.17,56.01,24.12z"/>
<path fill="#0C0C0C" d="M18.41,14.16c0.19-0.22,0.25-0.78,0.1-1.05c-0.17-0.32-0.4-0.28-0.67-0.27c0.07-0.08,0.16-0.07,0.25-0.09
	c0.52-0.13,0.91,0.08,1.01,0.52C19.2,13.71,18.94,14.05,18.41,14.16z"/>
<path fill="#171717" d="M12.76,12.97c-0.33,0.02-0.7-0.06-0.84,0.41c-0.11,0.38,0,0.77,0.34,0.97c-0.48,0.02-0.83-0.37-0.8-0.76
	c0.02-0.42,0.39-0.71,0.88-0.68C12.48,12.91,12.63,12.89,12.76,12.97z"/>
<path fill="#070707" d="M14.37,11.35c-0.45-0.04-0.79,0.15-0.99,0.56c-0.05,0.1-0.13,0.15-0.22,0.19c-0.02-0.02-0.02-0.04-0.02-0.06
	c-0.1-0.31-0.07-0.59,0.2-0.8c0.27-0.21,0.57-0.27,0.89-0.1C14.26,11.22,14.4,11.22,14.37,11.35z"/>
<path fill="#080808" d="M55.69,19.15c-0.05-0.25,0.02-0.49,0.06-0.74c0.09-0.57-0.46-0.84-0.89-0.7c-0.16,0.05-0.37,0.06-0.47,0.25
	c-0.02-0.12,0.01-0.23,0.07-0.34c0.02-0.02,0.05-0.04,0.08-0.05c0.54-0.32,0.87-0.27,1.27,0.18c0.05,0.11,0.08,0.23,0.02,0.35
	C55.81,18.46,55.8,18.81,55.69,19.15z"/>
<path fill="#050505" d="M17.03,11.69c-0.01,0-0.03,0.02-0.03,0.01c-0.33-0.33-0.75-0.46-1.19-0.56c-0.02-0.1,0.1-0.07,0.12-0.13
	c0.03-0.03,0.06-0.05,0.09-0.06c0.68-0.09,1,0.1,1.1,0.66C17.12,11.67,17.11,11.72,17.03,11.69z"/>
<path fill="#333333" d="M14.22,11.14c-0.06,0-0.11,0-0.17,0c-0.67-0.01-0.9,0.21-0.91,0.89c-0.22-0.42-0.16-0.77,0.18-1.01
	C13.61,10.83,13.97,10.87,14.22,11.14z"/>
<path fill="#080808" d="M56.23,24.25c0.54-0.09,0.85-0.43,0.95-0.96c0.02,0.02,0.04,0.05,0.07,0.07c0.25,0.62-0.16,1.12-0.89,1.09
	l0,0C56.33,24.39,56.18,24.38,56.23,24.25z"/>
<path fill="#1F1F1F" d="M53.36,18.58c-0.02,0.01-0.05,0.03-0.06,0.02c-0.53-0.14-0.88,0.12-1.16,0.53
	c-0.12-0.27-0.01-0.49,0.18-0.66c0.25-0.22,0.54-0.25,0.84-0.1C53.25,18.42,53.34,18.47,53.36,18.58z"/>
<path fill="#232323" d="M56.35,24.47c0.12-0.11,0.28-0.06,0.42-0.12c0.37-0.15,0.54-0.49,0.47-0.98c0.08,0.04,0.11,0.12,0.14,0.2
	c0.22,0.58-0.35,1.22-0.96,0.95C56.4,24.51,56.38,24.49,56.35,24.47z"/>
<path fill="#2E2E2E" d="M55.82,18.11c-0.02-0.11-0.05-0.23-0.07-0.34c-0.35-0.45-0.75-0.5-1.23-0.14l-0.03,0l-0.03,0
	c0.04-0.2,0.17-0.32,0.34-0.41c0.41-0.16,0.65-0.09,0.96,0.27C55.86,17.69,55.93,17.89,55.82,18.11z"/>
<path fill="#262626" d="M57.53,20.77c-0.07-0.05-0.14-0.09-0.2-0.14c0.27,0,0.47,0.12,0.61,0.35c0.16,0.58,0.07,0.83-0.39,1.05
	c-0.04,0.01-0.07,0-0.1-0.02c-0.01-0.06,0-0.12,0.04-0.16C57.8,21.5,57.77,21.14,57.53,20.77z"/>
<path fill="#575757" d="M53.16,18.38c-0.7-0.08-1.04,0.17-1.02,0.76c-0.01,0.05-0.01,0.09-0.02,0.14c-0.19-0.25-0.06-0.5,0.01-0.74
	C52.53,18.18,52.8,18.13,53.16,18.38z"/>
<path fill="#535353" d="M17.03,11.69c0.02-0.02,0.05-0.04,0.07-0.07c-0.05-0.08-0.01-0.17-0.05-0.25c-0.06-0.3-0.29-0.43-0.54-0.54
	c-0.08-0.04-0.18-0.02-0.23-0.11c0.3-0.14,0.55-0.05,0.75,0.17c0.2,0.22,0.26,0.49,0.15,0.78c-0.02,0.07-0.07,0.08-0.13,0.09
	C17.04,11.74,17.04,11.71,17.03,11.69z"/>
<path fill="#616161" d="M56.43,24.53c0.74-0.01,0.97-0.24,0.96-0.95c0.18,0.32,0.12,0.62-0.13,0.86
	C57.02,24.65,56.73,24.73,56.43,24.53z"/>
<path fill="#1F1F1F" d="M61.55,14c0.18-0.43,0.14-0.81-0.2-1.14C61.88,13.07,61.98,13.63,61.55,14z"/>
<path fill="#565656" d="M3.44,29.58c-0.43-0.19-0.78-0.04-1.09,0.26C2.53,29.31,3.04,29.19,3.44,29.58z"/>
<path fill="#262626" d="M16.27,10.72c0.47,0.04,0.75,0.25,0.83,0.62c-0.12,0.04-0.12-0.08-0.16-0.13c-0.26-0.31-0.57-0.36-0.93-0.21
	c-0.03,0-0.05,0-0.08,0C16,10.85,16,10.85,16.27,10.72z"/>
<path fill="#656565" d="M57.47,22.01c0.35-0.09,0.49-0.32,0.47-0.67c0-0.12,0-0.24-0.01-0.37c0.34,0.47,0.1,1.01-0.47,1.1
	c-0.02-0.02-0.03-0.03-0.02-0.04C57.45,22.01,57.46,22.01,57.47,22.01z"/>
<path fill="#797979" d="M55.75,17.49c-0.28-0.24-0.58-0.38-0.96-0.27C55.18,16.98,55.54,17.08,55.75,17.49z"/>
<path fill="#1E1E1E" d="M23.65,43.44c0.13-0.02,0.23,0.07,0.25,0.17c0.02,0.16-0.13,0.23-0.25,0.3
	C23.58,43.76,23.84,43.6,23.65,43.44z"/>
<path fill="#232323" d="M56.23,24.25c0.04,0.07,0.09,0.14,0.13,0.21c-0.17-0.06-0.27-0.2-0.35-0.35
	C56.08,24.17,56.15,24.21,56.23,24.25z"/>
<path fill="#262626" d="M57.47,22.01c-0.01,0.02-0.01,0.04-0.01,0.06c-0.19,0.04-0.38,0.02-0.56-0.07c0.12,0,0.23,0,0.35-0.01
	c0.06-0.05,0.13-0.06,0.2-0.01L57.47,22.01z"/>
<path fill="#FEEB55" d="M16.22,29.95c0-7.09,4.79-13.09,11.52-14.61c0.6-0.14,1.2-0.04,1.8,0.04c5.15,0.72,8.97,3.36,11.44,7.93
	c1.04,1.93,1.5,4.03,1.67,6.21c0.08,0.98-0.11,1.93-0.24,2.88c-0.55,4.03-2.59,7.18-5.78,9.61c-1.67,1.27-3.57,2.09-5.61,2.56
	c-0.53,0.12-1.09,0-1.63-0.06c-6.53-0.75-11.7-5.55-12.93-12C16.28,31.6,16.19,30.69,16.22,29.95z"/>
<path fill="#39DD79" d="M17.33,37.16c0.58,0.99,1.2,1.95,1.97,2.81c0.11,0.13,0.09,0.2-0.02,0.3c-3.21,2.88-6.17,6.03-9.47,8.8
	c-0.25,0.21-0.53,0.39-0.8,0.59c-0.18,0.14-0.25,0.1-0.31-0.12c-0.41-1.55-0.85-3.09-1.26-4.64c-0.93-3.48-1.86-6.96-2.79-10.44
	c-0.02-0.08-0.03-0.16-0.04-0.23c-0.02-0.08-0.05-0.16,0.08-0.15c0.96,1.47,1.91,2.94,2.87,4.4c0.55,0.83,1.11,1.64,1.74,2.4
	c0.14,0.18,0.3,0.34,0.46,0.51c0.29,0.29,0.62,0.45,1.04,0.35c0.04,0.05,0.04,0.1,0.04,0.16c0,0.27,0.13,0.45,0.38,0.53
	c0.24,0.08,0.46,0.03,0.63-0.18c1.12-1.13,2.31-2.18,3.45-3.28c0.58-0.56,1.14-1.14,1.76-1.65C17.15,37.25,17.21,37.16,17.33,37.16z
	"/>
<path fill="#39DD79" d="M53.23,14.43c1.22-0.18,2.44-0.28,3.66-0.36c0.26-0.02,0.52-0.03,0.78-0.05c0.01,0.07-0.03,0.09-0.07,0.11
	c-3.91,1.67-7.6,3.78-11.24,5.96c-0.65,0.39-1.3,0.8-1.95,1.2c-0.13,0.08-0.24,0.18-0.36-0.02c-0.47-0.77-1.07-1.44-1.64-2.14
	c0.02-0.19,0.18-0.25,0.31-0.34c2.05-1.39,4.21-2.54,6.56-3.35c0.74-0.26,1.48-0.52,2.24-0.69c0.15-0.09,0.34,0.03,0.48-0.11
	l-0.01,0c0.18-0.05,0.36-0.06,0.53-0.1C52.76,14.53,52.99,14.47,53.23,14.43z"/>
<path fill="#FEFEFE" d="M17.33,37.16c-1.42,1.34-2.83,2.68-4.25,4.02c-0.39,0.37-0.77,0.73-1.16,1.09c-0.24,0.24-0.48,0.15-0.7-0.01
	c-0.22-0.15-0.36-0.35-0.2-0.63c1.93-1.86,3.76-3.83,5.73-5.69C16.95,36.36,17.14,36.76,17.33,37.16z"/>
<path fill="#BFB775" d="M44.9,29.92c0.38-0.03,0.58-0.37,0.92-0.56c0.07,0.67-0.02,1.31-0.06,1.95c-0.02,0.26-0.08,0.52-0.1,0.78
	c-0.01,0.15-0.07,0.22-0.23,0.22c-0.66-0.01-1.32-0.01-1.98,0c-0.25,0.01-0.21-0.13-0.19-0.28c0.1-0.69,0.22-1.37,0.22-2.06
	c0-0.84-0.19-1.64-0.31-2.46c-0.04-0.28,0.03-0.33,0.28-0.32c0.61,0.01,1.23,0,1.84,0.01c0.12,0,0.29-0.08,0.34,0.12
	c0.05,0.18-0.02,0.3-0.16,0.41c-0.4,0.32-0.79,0.65-1.18,0.98c-0.07,0.08-0.12,0.17-0.18,0.27c-0.28,0.54,0.02,0.99,0.67,0.99
	C44.81,29.94,44.86,29.95,44.9,29.92z"/>
<path fill="#FEFEFE" d="M51.52,14.82c-3.07,0.85-5.94,2.13-8.58,3.93c-0.18,0.12-0.35,0.25-0.52,0.38
	c-0.04-0.03-0.08-0.05-0.11-0.08c-0.35-0.4-0.69-0.81-1.04-1.22c-0.04,0.03-0.08,0.06-0.11,0.09c0.04-0.03,0.09-0.06,0.13-0.08
	c3.11-1.39,6.33-2.45,9.68-3.06c0.07-0.01,0.13-0.02,0.2-0.02C51.29,14.74,51.43,14.65,51.52,14.82z"/>
<path fill="#BFB775" d="M42.02,36.41c0.32-0.75,0.59-1.47,0.78-2.22c0.09-0.34,0.18-0.68,0.25-1.03c0.03-0.14,0.08-0.17,0.23-0.17
	c0.64,0.02,1.27,0.02,1.91,0.01c0.24,0,0.29,0.06,0.23,0.29c-0.26,1-0.6,1.98-1.05,2.91c-0.08,0.17-0.14,0.24-0.37,0.22
	c-0.53-0.05-1.07-0.02-1.6-0.02C42.28,36.41,42.17,36.41,42.02,36.41z"/>
<path fill="#BFB775" d="M41.92,19.79c-0.8,0-1.54,0-2.29,0c-0.12,0-0.19-0.07-0.26-0.15c-0.98-1.1-2.11-2.03-3.36-2.8
	c-0.03-0.02-0.04-0.05-0.11-0.12c0.72,0,1.4,0,2.07,0c0.07,0,0.15,0.05,0.22,0.09c1.36,0.75,2.57,1.7,3.64,2.83
	C41.85,19.67,41.86,19.7,41.92,19.79z"/>
<path fill="#BFB775" d="M44.19,26.45c-0.33,0-0.66-0.01-0.99,0c-0.18,0.01-0.25-0.06-0.3-0.24c-0.19-0.77-0.44-1.53-0.77-2.25
	c-0.12-0.26-0.02-0.27,0.2-0.27c0.68-0.01,1.36,0.06,2.04-0.04c0.13-0.02,0.16,0.05,0.2,0.13c0.36,0.8,0.63,1.63,0.85,2.48
	c0.04,0.17-0.04,0.19-0.17,0.19C44.89,26.45,44.54,26.45,44.19,26.45z"/>
<path fill="#BFB775" d="M40.1,20.5c0.81,0,1.54,0,2.27,0c0.16,0,0.25,0.06,0.34,0.17c0.51,0.66,0.96,1.35,1.36,2.08
	c0.1,0.18,0.06,0.23-0.14,0.23c-0.7,0.01-1.41-0.04-2.11,0.03c-0.08,0.01-0.13-0.02-0.17-0.09C41.22,22.09,40.7,21.31,40.1,20.5z"/>
<path fill="#BFB775" d="M39.83,39.97c0.28-0.38,0.49-0.66,0.69-0.94c0.39-0.54,0.72-1.1,1.03-1.68c0.07-0.13,0.13-0.22,0.31-0.21
	c0.58,0.02,1.16,0.02,1.74,0.02c0.19,0,0.25,0.04,0.14,0.22c-0.54,0.89-1.15,1.72-1.86,2.48c-0.05,0.06-0.11,0.12-0.2,0.12
	C41.09,39.97,40.51,39.97,39.83,39.97z"/>
<path fill="#BEB675" d="M41.04,40.69c-0.86,0.78-1.74,1.43-2.69,1.96c-0.05,0.03-0.12,0.07-0.16,0.05
	c-0.33-0.16-0.69-0.05-1.03-0.11c-0.04-0.11,0.05-0.13,0.1-0.16c0.64-0.49,1.24-1.03,1.8-1.61c0.08-0.08,0.14-0.19,0.28-0.17
	C39.88,40.72,40.43,40.64,41.04,40.69z"/>
<path fill="#BBB373" d="M32.95,15.1c1.11,0.12,2.17,0.41,3.28,0.8c-0.25,0.11-0.46,0.03-0.66,0.07c-0.75,0.12-1.44-0.06-2.12-0.38
	c-0.35-0.17-0.74-0.27-1.12-0.41C32.52,14.97,32.74,15.09,32.95,15.1z"/>
<path fill="#B6AE70" d="M34.92,43.91c0.41-0.25,0.85-0.44,1.23-0.74c0.17-0.12,0.25,0.14,0.4,0.1c0.07,0.05,0.22,0,0.21,0.16
	c-0.61,0.23-1.2,0.49-1.85,0.62C34.88,44,34.89,43.96,34.92,43.91z"/>
<path fill="#EAF9F0" d="M11.02,41.63c0.03,0.55,0.4,0.81,0.9,0.64c-0.2,0.28-0.49,0.36-0.79,0.23c-0.3-0.14-0.41-0.39-0.33-0.76
	C10.87,41.7,10.94,41.67,11.02,41.63z"/>
<path fill="#0D0D0D" d="M57.45,21.99c-0.07,0-0.13,0.01-0.2,0.01c0-0.12,0.09-0.17,0.15-0.26c0.18-0.27,0.3-0.54,0.08-0.84
	c-0.06-0.08-0.05-0.12,0.05-0.13c0.31,0.23,0.38,0.66,0.15,0.97C57.61,21.83,57.53,21.9,57.45,21.99z"/>
<path fill="#12110B" d="M44.07,28.88c0.05-0.08,0.11-0.16,0.21-0.19c-0.17,0.65-0.12,0.75,0.62,1.23c-0.02,0.02-0.05,0.04-0.07,0.07
	C44.21,30.07,43.87,29.57,44.07,28.88z"/>
<path fill="#16150E" d="M36.56,43.31c-0.13-0.05-0.27-0.09-0.4-0.14c0.04-0.07,0.12-0.1,0.17-0.06c0.16,0.15,0.35,0.12,0.53,0.13
	c0.08,0,0.17,0,0.17,0.11c-0.01,0.11-0.11,0.09-0.18,0.1C36.82,43.25,36.64,43.39,36.56,43.31z"/>
<path fill="#C3DFCE" d="M51.52,14.82c-0.1-0.11-0.24-0.02-0.34-0.07c0.27-0.1,0.54-0.13,0.83-0.1
	C51.87,14.81,51.69,14.8,51.52,14.82z"/>
<path fill="#8D8857" d="M32.95,15.1c-0.2,0.05-0.43-0.08-0.62,0.07c-0.11-0.03-0.22-0.05-0.33-0.08c0.11-0.18,0.27-0.06,0.41-0.07
	C32.59,15.05,32.78,14.99,32.95,15.1z"/>
<path fill="#6AC48D" d="M53.23,14.43c-0.22,0.11-0.47,0.11-0.7,0.18c-0.05-0.05-0.14,0.02-0.19-0.06
	C52.63,14.47,52.92,14.43,53.23,14.43z"/>
<path fill="#615D3C" d="M32.41,15.02c-0.13,0.04-0.29-0.05-0.41,0.07c-0.08,0-0.18,0.03-0.24-0.11
	C31.99,14.94,32.2,14.93,32.41,15.02z"/>
<path fill="#A7CCB5" d="M52.34,14.54c0.06,0.02,0.12,0.04,0.19,0.06c-0.18,0.01-0.35,0.11-0.54,0.04
	C52.07,14.51,52.22,14.57,52.34,14.54z"/>
<path fill="#B0AE96" d="M34.92,43.91c0,0.05,0,0.1,0,0.14c-0.06,0.03-0.13,0.05-0.19,0.08c-0.07,0.02-0.15,0.06-0.14-0.07
	C34.71,44.02,34.78,43.89,34.92,43.91z"/>
<path fill="#6D6B5F" d="M34.59,44.06c0.05,0.02,0.09,0.05,0.14,0.07c-0.11,0.07-0.23,0.11-0.41,0.09
	C34.4,44.09,34.51,44.09,34.59,44.06z"/>
<path fill="#6A6541" d="M36.56,43.31c0.09,0,0.18-0.02,0.27-0.01c0.19,0.02,0.02,0.09,0.02,0.14c-0.03,0-0.05,0-0.08,0
	C36.73,43.33,36.61,43.38,36.56,43.31z"/>
<path fill="#3AB268" d="M4.68,34.08c-0.06,0.03-0.07,0.09-0.08,0.15c-0.04-0.11-0.08-0.21-0.12-0.34C4.64,33.89,4.64,34,4.68,34.08z
	"/>
<path fill="#1B1B1B" d="M54.52,17.63c0.39-0.45,1-0.38,1.23,0.14C55.38,17.39,54.96,17.39,54.52,17.63z"/>
<path fill="#1B1B1B" d="M16.01,11c0.24-0.2,0.56-0.2,0.8,0.02c0.11,0.1,0.19,0.21,0.29,0.32c0,0.09,0,0.18-0.01,0.27
	C16.93,11.07,16.53,10.93,16.01,11z"/>
<path d="M22.69,33.61c0-0.36,0.02-0.85,0.21-1.31c0.08-0.19,0.18-0.37,0.36-0.48c0.14-0.09,0.28-0.08,0.41,0.03
	c0.13,0.11,0.15,0.26,0.08,0.4c-0.68,1.35-0.37,2.67,0.23,3.93c0.71,1.48,2.06,2.2,3.52,1.97c1.71-0.26,3.1-1.51,3.38-3.05
	c0.05-0.3,0.07-0.61-0.05-0.91c-0.09-0.22-0.08-0.41,0.15-0.52c0.25-0.11,0.43,0.04,0.52,0.25c0.18,0.45,0.17,0.92,0.07,1.38
	c-0.49,2.39-3.22,4.11-5.56,3.47c-1.52-0.41-2.42-1.5-2.96-2.93C22.8,35.17,22.7,34.46,22.69,33.61z"/>
<path d="M25.57,26.5c-0.06-0.47-0.1-0.95-0.25-1.41c-0.07-0.24-0.17-0.47-0.31-0.68c-0.29-0.43-0.71-0.6-1.21-0.48
	c-0.95,0.22-1.49,0.88-1.78,1.76c-0.19,0.58-0.27,1.17-0.11,1.78c0.05,0.21,0.03,0.39-0.21,0.47c-0.23,0.07-0.37-0.05-0.46-0.24
	c-0.03-0.06-0.05-0.13-0.07-0.19c-0.23-1.29,0.25-3.03,1.44-3.83c0.38-0.26,0.8-0.43,1.26-0.48c0.68-0.08,1.23,0.16,1.65,0.69
	c0.08,0.11,0.17,0.22,0.22,0.34c0.54,1.13,0.62,2.33,0.51,3.56c-0.18,0.26-0.39,0.23-0.61,0.07l0,0c-0.08-0.32-0.01-0.64-0.04-0.97
	C25.6,26.77,25.64,26.63,25.57,26.5z"/>
<path fill="#010000" d="M29.79,28.15c-0.07-0.12-0.05-0.25-0.02-0.36c0.23-1.01,0.59-1.96,1.31-2.74c0.27-0.29,0.58-0.52,0.95-0.65
	c0.67-0.23,1.27-0.14,1.8,0.36c0.84,0.8,1.12,1.82,1.15,2.93c0.01,0.42-0.03,0.84-0.05,1.26c-0.01,0.25-0.1,0.47-0.39,0.45
	c-0.27-0.02-0.33-0.24-0.32-0.48c0.03-0.54,0.06-1.09,0.01-1.64c-0.06-0.72-0.28-1.38-0.8-1.91c-0.46-0.47-0.99-0.52-1.52-0.12
	c-0.46,0.34-0.76,0.81-0.99,1.32c-0.23,0.5-0.38,1.02-0.49,1.55C30.21,28.36,30,28.3,29.79,28.15z"/>
<path fill="#1D1B0A" d="M29.79,28.15c0.21,0.01,0.42,0.11,0.63,0c-0.02,0.19-0.16,0.26-0.33,0.26
	C29.93,28.4,29.81,28.33,29.79,28.15z"/>
<path fill="#413C16" d="M25.57,26.5c0.15,0.45,0.03,0.91,0.07,1.36C25.47,27.42,25.59,26.96,25.57,26.5z"/>
<path fill="#413C16" d="M25.65,27.87c0.21,0.05,0.42,0.09,0.61-0.07c-0.01,0.18-0.13,0.26-0.28,0.28
	C25.82,28.09,25.68,28.05,25.65,27.87z"/>
<path fill="#47442C" d="M44.07,28.88c0,0.19-0.01,0.39,0.02,0.57c0.04,0.26,0.38,0.49,0.75,0.53c-0.35,0.09-0.65-0.01-0.83-0.32
	C43.84,29.4,43.82,29.13,44.07,28.88z"/>
</svg>
