<svg id="Capa_1" data-name="Capa 1" xmlns="http://www.w3.org/2000/svg" viewBox="0 0 464.77 460.79"><defs><style>.cls-1{fill:#010101;}.cls-2{fill:#feeb55;}.cls-3{fill:#fefefd;}.cls-4{fill:#0b0a03;}.cls-5{fill:#0e0d04;}.cls-6{fill:#e7e0a4;}.cls-7{fill:#0a0903;}.cls-8{fill:#0e0c04;}.cls-9{fill:#0c0b04;}.cls-10{fill:#fef9d0;}.cls-11{fill:#fefadb;}.cls-12{fill:#26230c;}.cls-13{fill:#100e05;}.cls-14{fill:#fefdf3;}.cls-15{fill:#fefbe2;}.cls-16{fill:#fefada;}.cls-17{fill:#fef9d3;}</style></defs><title>Money</title><path d="M450.77,498a26.42,26.42,0,0,1-10-4.39c-2.85-1.84-4.55-1.21-6.92,1.11-35.48,34.78-78.13,49.76-127.45,45.25-66.43-6.07-124.24-59.52-136.18-125.51C157.73,345.67,189.22,279,249.3,246.8a17.27,17.27,0,0,1,1.59-.68c4.18-6.29,2.56-13.44,3.07-20.29.24-3.09-.86-6.55,2.12-9.15,2.76,2.14,2.13,5,2.26,7.63.17,3.48-.29,7,.31,10.44.36,2.06.15,5.06,3.8,4.51.79-.36,1.57-.76,2.35-1.15,3.2-1.56,6.66-2.43,9.94-3.77,51-15.53,98.22-7.77,141.82,22.73,7.08,5,7,5.17,14.33.71a126.13,126.13,0,0,1,21.44-10.46c3.78-1,7.33-3.13,11.47-2.27a4.14,4.14,0,0,1,1.55.82c2.12,1.16,4.43,1.21,6.78,1.27,1.64,0,4-.3,4.26,1.93.21,1.79-2,2.16-3.39,2.63a71.72,71.72,0,0,0-11.21,4.85,15.41,15.41,0,0,0-4.44,3.68c-5.4,4.27-12.24,5.77-18,9.54-3.59,2.37-3.87,3.81-.91,7,24.26,26.1,38.23,57.09,41.55,92.48,1.35,14.44,1.53,29.16-1.72,43.58a68.06,68.06,0,0,1-2.45,10.45,160.58,160.58,0,0,1-26.39,55.46c-2,2.73-1.82,4.4,1.56,5.6,2.54.9,5.17,1.77,7.09,3.87,2.25,3.07,5.53,4.84,8.57,6.9.78.53,1.7,1.2,1.56,2.29-.19,1.41-1.49,1.66-2.59,1.86C460.59,500.17,455.71,498.71,450.77,498Z" transform="translate(-167.48 -79.94)"/><path class="cls-1" d="M263.74,240.34c-4.32,3-6.14.2-6.63-3.44-.57-4.18-.21-8.48-.39-12.73-.09-2,.59-4.14-.78-6.53-1.07,7.49-.41,14.65-.78,21.71-.21,4-1.27,5.48-4.27,6.77-.61-18.17-.29-36.19,4.39-54,17.82-67.92,80.63-115,149.87-112.06,71,3,129.37,53.9,141.81,123.47a143.79,143.79,0,0,1,1.33,42.53c-.39,3.3.82,4.36,3.44,5.56,52.83,24.27,82.35,71.7,80.43,129.07-2,60.17-48.77,113.86-108.09,124.33-25.12,4.43-49.54,2.39-73.3-7H468c-4.27-3.42-9.13-4.9-11.34-9.38,2.32-1.7,4.49-.22,6.65.38,45.34,12.58,86,3.74,120.15-28.74,20.83-19.79,32.54-44.86,35.48-73.89,3.18-31.4-4.56-59.79-23.5-84.71-20.38-26.82-47.46-42.73-81.14-47.13-17.55-2.29-34.55-.28-51.38,4.61-2,.59-4.06,1.58-6.16.19,2.56-4.66,7.53-5.55,11.79-7.5,2.23-1,4.62-1.69,6.77-2.46-2.41-3.62-9,3.77-9.59-4.19,5.07-4.95,11.88-4.26,18-5.09a125.94,125.94,0,0,1,39.88,1.24c3.28.77,6.57,1.48,9.86,2.17,4.21-1.27,2.9-5.08,3.24-7.8,1-8.2-.23-16.38-1.39-24.46C526.19,147.52,476.4,99,412.7,93.43c-41.44-3.65-78,8.85-108.19,38.41-21.83,21.36-35,47.09-39.72,77.11C263.16,219.31,261.69,229.8,263.74,240.34Z" transform="translate(-167.48 -79.94)"/><path class="cls-2" d="M273.05,249.42c35.67-13.61,71.22-12.61,106.19,2.05,57.51,24.1,92.42,81.94,87.83,144.4C462.14,463,409.53,518.74,342.85,527.42c-78,10.17-148.26-41.57-161.86-119.19-11.18-63.8,24.09-129.58,83.46-155.61a23.85,23.85,0,0,1,2.76-.86C269.2,251.09,271.35,250.83,273.05,249.42Z" transform="translate(-167.48 -79.94)"/><path class="cls-2" d="M524.44,242.79c-19.71-2.76-39.32-3-58.71,2.37h-.12c-2.26.07-1.34-1.65-1.34-2.63,0-2.11.39-4.24-.08-6.33s-1.48-4.19-4-4.16c-2.28,0-3.16,1.94-3.75,3.84-.7,2.21-.52,4.59-1.14,6.82-.56,2-.32,4.31-2.41,5.64-9.31,4.8-19.14,8.62-27.69,14.83-2,1.44-3.21.14-4.58-.95A156.19,156.19,0,0,0,277.37,235a26.19,26.19,0,0,1-2.83.54c-2.66-3.88-.74-8-.16-11.8,8.4-55.66,53.31-99.36,109.16-106.6,20.48-2.65,40.32-.07,59.67,6.91.73.26,1.45.58,2.19.8,2.41.7,4.88.89,6.09-1.75,1.3-2.82-.86-4.44-3-5.5-5.6-2.84-11.72-4.28-17.78-5.62C383.24,101.44,341.43,113.21,306,146c-21.95,20.34-34.64,46.26-39.5,76-.95,5.78-.52,11.68-2.06,17.35l-.72,1c-3-.51-2-3-2.07-4.66C258.05,165.07,311,101.59,381.05,92.52c76.45-9.91,144.47,41.61,155.88,118.19a114.59,114.59,0,0,1,.62,32.09c-.27,2-.12,4.37-3.25,2.42-.6-19.65-3.74-38.79-11.5-57-1.16-2.71-2.38-5.36-4.6-7.39-1-1-2.2-1.81-3.65-1.28-1.68.61-2.14,2.14-2.26,3.78-.2,2.86,1.1,5.3,2.26,7.77a122.57,122.57,0,0,1,11.25,41C526.14,235.68,527.05,239.51,524.44,242.79Z" transform="translate(-167.48 -79.94)"/><path class="cls-2" d="M456.76,259.31c23.8-8,47.89-9.84,72.44-3.74,55.74,13.83,94.86,66.51,92,124.12-2.81,57.86-46,106.19-102.51,114.93a125.9,125.9,0,0,1-62.08-6c-3.48-2.67-10.16-2.4-10.87-6.14-.55-2.91,4.37-6.77,6.67-10.33,9.84-15.21,17.67-31.33,21.74-49.12,2.6-1.67,4.42.44,6.35,1.45,22.57,11.76,46.72,6,61.26-14.72a37.27,37.27,0,0,0,6.74-19.63c.11-2,.83-5-2-5.36s-2.74,2.64-3,4.71A40.6,40.6,0,0,1,482.73,419a13,13,0,0,1-6.11-6.75c5.75-30.87,2.21-60.73-10-89.57a155.71,155.71,0,0,0-34.16-50C439.86,266.54,448.81,263.82,456.76,259.31Z" transform="translate(-167.48 -79.94)"/><path class="cls-3" d="M264.46,239.35c-2.23-8.25.27-16.23,1.8-24.14C276.91,160.3,324,115.82,379.36,108a141.66,141.66,0,0,1,68.32,7.27c3.79,1.35,7.88,3.35,6.08,8.28-1.73,4.7-5.77,4.15-9.83,2.55C392.39,105.81,332,123.49,299,168.4c-14.69,20-22.59,42.47-24.48,67.14Z" transform="translate(-167.48 -79.94)"/><path class="cls-4" d="M476.62,412.24C488,423,501.29,426,516,421c14.95-5.11,23.41-16.1,26.1-31.62.2-1.15.13-2.35.36-3.49.5-2.51,1.7-4.54,4.62-4.23s3.73,2.6,3.62,5.13a45.9,45.9,0,0,1-9.14,26.08,47.56,47.56,0,0,1-62.19,12.64c-1.63-.94-2.93-2.68-5.13-2.47A32.19,32.19,0,0,0,476.62,412.24Z" transform="translate(-167.48 -79.94)"/><path class="cls-5" d="M452.85,248.34c.53-4,1-8,1.6-12,.53-3.59,2.16-6.53,6.23-6.2s5.39,3.3,5.32,7c0,2.68-.26,5.36-.39,8Z" transform="translate(-167.48 -79.94)"/><path class="cls-6" d="M273.05,249.42c-1.39,2.17-3.47,2.64-5.84,2.34A10.05,10.05,0,0,1,273.05,249.42Z" transform="translate(-167.48 -79.94)"/><path class="cls-3" d="M524.44,242.79c.41-17.88-3.93-34.7-11.16-50.89-.71-1.6-1.63-3.12-2.21-4.77-1.24-3.47-1.93-7.21,2-9.27,4.17-2.2,6.72,1,8.38,4.09,6.5,12.13,10.11,25.26,12.29,38.77,1.06,6.51,1.4,13.14,2.06,19.72.18,1.8.07,3.52-1.49,4.78Z" transform="translate(-167.48 -79.94)"/><path class="cls-3" d="M337.41,519a111.15,111.15,0,0,1-53.61-4.13c-54.5-17.52-87.74-54.78-96.79-111.36-11.73-73.3,39.2-141.82,112.56-154.09,29-4.86,56.51-.15,82.85,12.48a24.52,24.52,0,0,1,4,2.42c2.54,1.89,3.24,4.46,1.78,7.23s-3.89,3.14-6.56,2.29a34.79,34.79,0,0,1-4.78-2.18c-48.64-23.94-107.18-14.13-144.8,24.79q-32.24,33.38-35.18,80.14a125.07,125.07,0,0,0,100.25,130.3,158.61,158.61,0,0,0,27.26,2.71c3-1,6.15-.19,9.21-.47s5.39.59,6.55,3.58S339.64,517.45,337.41,519Z" transform="translate(-167.48 -79.94)"/><path class="cls-7" d="M325.33,460.48c-36,0-62-20.47-69.27-49.83a22,22,0,0,1-.58-5.78,5.36,5.36,0,0,1,10.12-2.13,26.91,26.91,0,0,1,1.79,5.51c6.44,23.24,28.06,41.72,55,40.08,27.86-1.69,48.87-22.52,51.24-49.33.22-2.56.33-5.11,2.37-7a4.86,4.86,0,0,1,5.92-.93c2.78,1.44,3.6,4,3.42,6.88-.8,12.93-4.5,25-12.27,35.36C359.74,451.19,341.7,460.06,325.33,460.48Z" transform="translate(-167.48 -79.94)"/><path class="cls-3" d="M456.76,397.36c-1.29,23.36-9.75,44.19-22.47,63.49-2.18,3.32-5.08,6-9.14,3.43s-2.79-6.46-.57-9.72c11.14-16.36,17.66-34.49,20.94-53.9.32-1.91.48-3.85.71-5.78,1.11-5.39.33-10.85.48-16.28.1-3.71,1-7,5.27-6.86,4,.14,5.46,3.11,5.26,7C456.93,384.93,457.77,391.17,456.76,397.36Z" transform="translate(-167.48 -79.94)"/><path class="cls-8" d="M385.62,340.64c0,5.05,0,10.11,0,15.16,0,3.25-1.16,5.84-4.78,6.16-3.88.35-5.84-2-6-5.55-.62-10.68-1.07-21.36-1.47-32.05-.13-3.58,1.55-6.32,5.32-6.28s5.37,2.74,5.58,6.25c.33,5.44.57,10.88.84,16.31Z" transform="translate(-167.48 -79.94)"/><path class="cls-9" d="M260.34,324.6c.89,10.84,1.82,21.67,2.64,32.52.3,3.86-.71,7.27-5.32,7.42s-5.77-3.05-5.94-7c-.27-6.59-.63-13.18-.95-19.77-1.22-3.53.4-7.31-1-10.83l0-1.18C252.65,319.58,255.82,319.23,260.34,324.6Z" transform="translate(-167.48 -79.94)"/><path class="cls-10" d="M456.76,397.36c0-6.2-.08-12.41-.09-18.61,0-3.3-1.08-6-4.76-5.95s-4.43,2.83-4.64,6.1c-.34,5.33,1.31,10.8-1,16,0-5.84-.14-11.68,0-17.52.06-3.48.81-7,5.21-7s6.37,2.83,6.35,6.81C457.71,383.89,458.9,390.72,456.76,397.36Z" transform="translate(-167.48 -79.94)"/><path class="cls-11" d="M337.41,519c3.4-6.92,2-9.26-5.47-9.28-2.52,0-5-.08-7.56-.12,3.85-1.71,7.95-1,11.93-1a5.25,5.25,0,0,1,5.54,4.89C342.23,516.59,340.69,518.58,337.41,519Z" transform="translate(-167.48 -79.94)"/><path class="cls-12" d="M260.34,324.6c-3.9-3.07-7.53-3.66-10.55,1.17-.62-4.21,1.19-7.06,5.36-7.18C258.6,318.5,260.84,320.66,260.34,324.6Z" transform="translate(-167.48 -79.94)"/><path class="cls-12" d="M249.82,327c2.05,3.46,1,7.19,1,10.83C249.54,334.25,249.63,330.6,249.82,327Z" transform="translate(-167.48 -79.94)"/><path class="cls-8" d="M466.29,180.72q0,7,0,14c0,3.69-1,6.74-5.36,6.78-3.91.05-5.38-2.65-5.56-6.13q-.78-15.44-1.41-30.88c-.16-3.74,1.18-6.9,5.31-6.87s5.48,3.07,5.66,6.79c.26,5.44.55,10.88.83,16.32Z" transform="translate(-167.48 -79.94)"/><path class="cls-9" d="M341,164.12c.89,10.84,1.82,21.68,2.64,32.52.29,3.87-.72,7.27-5.33,7.42s-5.77-3.05-5.93-7c-.27-6.59-.63-13.18-1-19.77-1.21-3.53.41-7.31-.94-10.83l0-1.18C333.32,159.1,336.48,158.75,341,164.12Z" transform="translate(-167.48 -79.94)"/><path class="cls-12" d="M341,164.12c-3.9-3.07-7.53-3.66-10.55,1.17-.63-4.21,1.18-7.06,5.36-7.17C339.27,158,341.51,160.18,341,164.12Z" transform="translate(-167.48 -79.94)"/><path class="cls-12" d="M330.49,166.47c2.05,3.46,1,7.19.94,10.83C330.21,173.77,330.3,170.13,330.49,166.47Z" transform="translate(-167.48 -79.94)"/><path class="cls-3" d="M496.41,487.65c-11,.44-23.2-1.82-35.11-5.81-3.7-1.24-6.77-3.22-5.4-7.5s5.33-4,8.84-2.87c27.62,8.71,54.42,6.87,80.45-6,3.38-1.68,7-2.34,8.94,2s-1.21,6.35-4.45,8.09C535.13,483.4,517,487.64,496.41,487.65Z" transform="translate(-167.48 -79.94)"/><path class="cls-3" d="M581.61,435.69c4.79-8.41,10.38-16.37,13.74-25.59A150.93,150.93,0,0,0,600,394.45c.91-3.69,3-6.12,7-5.16,3.82.91,4.62,4.1,3.85,7.4-3.88,16.47-10,31.92-21.18,45C583.29,443.55,581.82,442.47,581.61,435.69Z" transform="translate(-167.48 -79.94)"/><path class="cls-3" d="M601.77,358.57c-2.27-15.45-8-29.66-15.39-43.29,1.35-6.15,2.82-6.89,9.2-4.67,8.22,12.81,14.23,26.44,15.41,41.84.17,2.11,1.91,3.87,1.16,6.12C608.11,363.53,606,363.53,601.77,358.57Z" transform="translate(-167.48 -79.94)"/><path class="cls-13" d="M542,344.55c0-3.48,0-7,0-10.45,0-2.62.89-4.72,3.83-4.82,2.55-.08,3.95,1.73,4.1,4.05q.72,11.6,1.05,23.21c.07,2.34-1.21,4.21-3.81,4.25s-3.85-1.66-4-4.06c-.33-4.05-.49-8.12-.72-12.18Z" transform="translate(-167.48 -79.94)"/><path class="cls-14" d="M570,283.75c3.86-.21,12.76,8.1,12.9,12.06.16,4.13-4,7.08-7.58,4.9a26.49,26.49,0,0,1-9.21-8.68C563.87,288.24,566.07,284,570,283.75Z" transform="translate(-167.48 -79.94)"/><path class="cls-15" d="M601.77,358.57c3.46,3.26,6.92,3,10.38,0,.26,3.22-1.29,5.41-4.38,5.57C604.26,364.32,602.21,362.13,601.77,358.57Z" transform="translate(-167.48 -79.94)"/><path class="cls-16" d="M595.58,310.61c-4.07-.43-7.84-.27-9.19,4.67-2.13-3-.37-5.33,1.93-6.53C590.81,307.45,593.87,307.22,595.58,310.61Z" transform="translate(-167.48 -79.94)"/><path class="cls-17" d="M581.61,435.69c.72,4.7,3.29,6.85,8.1,6-1.84,2.58-4.32,3.19-6.84,1.43C580.19,441.22,579.59,438.58,581.61,435.69Z" transform="translate(-167.48 -79.94)"/></svg>