<svg xmlns="http://www.w3.org/2000/svg" version="1.1" xmlns:xlink="http://www.w3.org/1999/xlink" xmlns:svgjs="http://svgjs.com/svgjs" width="1440" height="560" preserveAspectRatio="none" viewBox="0 0 1440 560"><g mask="url(&quot;#SvgjsMask1030&quot;)" fill="none"><path d="M0 94.14L10 107.83L20 118.22L30 166.23L40 145.02L50 178.5L60 217.11L70 237.31L80 283.52L90 279.56L100 319.51L110 347.2L120 354.81L130 322.63L140 335.37L150 268.92L160 323.76L170 359.02L180 332.74L190 285.15L200 310.51L210 288.02L220 277.55L230 283.81L240 303.13L250 252.42L260 233.67L270 202.47L280 239.19L290 252.25L300 263.15L310 320.52L320 346.29L330 388.08L340 379.86L350 440.64L360 457.6L370 456.62L380 428.48L390 425.22L400 384.63L410 448.06L420 438.58L430 466.33L440 415.87L450 346.45L460 368.96L470 359.39L480 348.34L490 313.91L500 312.25L510 284.68L520 295.21L530 363.68L540 422.72L550 433.13L560 436.49L570 399.48L580 364.39L590 429.55L600 434.39L610 411.31L620 403.49L630 372.33L640 358.55L650 365.93L660 346.05L670 359.9L680 302.19L690 263.59L700 319.92L710 341.21L720 273.92L730 213.87L740 162.68L750 142.5L760 145.41L770 213.55L780 212.3L790 154.6L800 145.89L810 94.04L820 144.5L830 91.54L840 143.45L850 202.65L860 204.76L870 213.88L880 276.05L890 258.08L900 244.75L910 182.7L920 152.99L930 179.94L940 175.6L950 150.58L960 92.39L970 151.33L980 205.18L990 274.83L1000 230.76L1010 230.02L1020 161.47L1030 115.49L1040 49.7L1050 69.93L1060 99.32L1070 135.23L1080 203.56L1090 237.46L1100 256.87L1110 225.11L1120 214.59L1130 253.75L1140 319.18L1150 332.3L1160 264.92L1170 333.47L1180 273.07L1190 294.44L1200 265.91L1210 223.02L1220 243.66L1230 181.52L1240 224.79L1250 223.26L1260 223.32L1270 198.64L1280 182.4L1290 207.62L1300 265.47L1310 266.5L1320 307.56L1330 328.07L1340 348.18L1350 409.95L1360 474.41L1370 516.99L1380 512.13L1390 455.44L1400 385.96L1410 415.71L1420 376.27L1430 413.1L1440 403.79" stroke="rgba(15, 157, 88, 1)" stroke-width="2"></path><path d="M0 94.14L10 107.83L20 118.22L30 166.23L40 145.02L50 178.5L60 217.11L70 237.31L80 283.52L90 279.56L100 319.51L110 347.2L120 354.81L130 322.63L140 335.37L150 268.92L160 323.76L170 359.02L180 332.74L190 285.15L200 310.51L210 288.02L220 277.55L230 283.81L240 303.13L250 252.42L260 233.67L270 202.47L280 239.19L290 252.25L300 263.15L310 320.52L320 346.29L330 388.08L340 379.86L350 440.64L360 457.6L370 456.62L380 428.48L390 425.22L400 384.63L410 448.06L420 438.58L430 466.33L440 415.87L450 346.45L460 368.96L470 359.39L480 348.34L490 313.91L500 312.25L510 284.68L520 295.21L530 363.68L540 422.72L550 433.13L560 436.49L570 399.48L580 364.39L590 429.55L600 434.39L610 411.31L620 403.49L630 372.33L640 358.55L650 365.93L660 346.05L670 359.9L680 302.19L690 263.59L700 319.92L710 341.21L720 273.92L730 213.87L740 162.68L750 142.5L760 145.41L770 213.55L780 212.3L790 154.6L800 145.89L810 94.04L820 144.5L830 91.54L840 143.45L850 202.65L860 204.76L870 213.88L880 276.05L890 258.08L900 244.75L910 182.7L920 152.99L930 179.94L940 175.6L950 150.58L960 92.39L970 151.33L980 205.18L990 274.83L1000 230.76L1010 230.02L1020 161.47L1030 115.49L1040 49.7L1050 69.93L1060 99.32L1070 135.23L1080 203.56L1090 237.46L1100 256.87L1110 225.11L1120 214.59L1130 253.75L1140 319.18L1150 332.3L1160 264.92L1170 333.47L1180 273.07L1190 294.44L1200 265.91L1210 223.02L1220 243.66L1230 181.52L1240 224.79L1250 223.26L1260 223.32L1270 198.64L1280 182.4L1290 207.62L1300 265.47L1310 266.5L1320 307.56L1330 328.07L1340 348.18L1350 409.95L1360 474.41L1370 516.99L1380 512.13L1390 455.44L1400 385.96L1410 415.71L1420 376.27L1430 413.1L1440 403.79L1440 560L0 560z" fill="url(#SvgjsLinearGradient1031)"></path></g><defs><mask id="SvgjsMask1030"><rect width="1440" height="560" fill="#ffffff"></rect></mask><linearGradient x1="50%" y1="0%" x2="50%" y2="100%" id="SvgjsLinearGradient1031"><stop stop-opacity="0.65" stop-color="rgba(15, 157, 88, 1)" offset="0"></stop><stop stop-opacity="0" stop-color="#55efa4" offset="0.8"></stop></linearGradient></defs></svg>